<svg width="713.948" height="367.877" viewBox="0 0 188.899 97.334" xmlns="http://www.w3.org/2000/svg"><path style="fill:#d38024;stroke-linecap:round;stroke-linejoin:round" d="M56.221 42.588h58.098c.9 0 1.623.724 1.623 1.623v19.667c0 .899-.724 1.623-1.623 1.623H56.221a1.62 1.62 0 0 1-1.623-1.623V44.21c0-.899.724-1.623 1.623-1.623z" transform="translate(-41.312 -38.473)"/><path style="fill:#d38024;stroke-linecap:round;stroke-linejoin:round" d="M56.22 38.473c-3.107 0-5.738 2.63-5.738 5.738v19.666c0 3.108 2.63 5.738 5.739 5.738h58.097c3.108 0 5.739-2.63 5.739-5.738V44.211c0-3.108-2.63-5.738-5.739-5.738zm2.493 8.23h53.113v14.682H58.713Z" transform="translate(-41.312 -38.473)"/><path style="fill:#252525;stroke-linecap:round;stroke-linejoin:round" d="M46.075 64.544v53.497h147.02l-4.589 13.005 36.943-39.754-36.943-39.754 4.59 13.006z" transform="translate(-41.312 -38.473)"/><path style="fill:#252525;stroke-linecap:round;stroke-linejoin:round" d="M188.084 46.797a4.763 4.763 0 0 0-4.068 6.326l2.35 6.658H46.075a4.763 4.763 0 0 0-4.764 4.764v53.496a4.763 4.763 0 0 0 4.764 4.762h140.29l-2.35 6.658a4.763 4.763 0 0 0 7.978 4.828l36.944-39.754a4.763 4.763 0 0 0 0-6.484l-36.944-39.754a4.763 4.763 0 0 0-3.91-1.5zm8.713 20.66 22.15 23.836-22.15 23.836a4.763 4.763 0 0 0-3.701-1.852H50.838v-43.97h142.258a4.763 4.763 0 0 0 3.7-1.85z" transform="translate(-41.312 -38.473)"/><path style="-inkscape-font-specification:'Brass Mono Bold';fill:#ccc;stroke-width:9.525;stroke-linecap:round;stroke-linejoin:round" d="M108.323 106.126q-2.997-29.21-2.997-29.312 0-1.066.711-1.778.762-.762 1.83-.762.964 0 1.676.66.762.661.863 1.626l1.829 17.78 3.302-9.448q.254-.712.914-1.169.66-.508 1.474-.508.812 0 1.473.508.66.457.914 1.169l3.302 9.448 1.829-17.78q.102-.965.813-1.625.762-.66 1.727-.66 1.067 0 1.778.761.762.712.762 1.778 0 .102-2.997 29.312-.102.965-.864 1.626-.711.66-1.676.66-.813 0-1.473-.457-.66-.508-.915-1.22l-4.673-13.36-4.674 13.36q-.254.712-.914 1.22-.66.457-1.474.457-.965 0-1.727-.66-.711-.66-.813-1.626zm42.063-9.754-4.064-11.633-4.014 11.633zm8.534 9.5q0 1.067-.762 1.829-.762.711-1.778.711-.863 0-1.524-.457-.66-.508-.914-1.27l-1.83-5.233h-11.53l-1.779 5.182q-.254.762-.914 1.27-.66.457-1.524.457-1.016 0-1.778-.762t-.762-1.778q0-.457.152-.863l9.957-28.804q.254-.762.915-1.22.66-.507 1.473-.507.254 0 .558.05.356.051.966.509.61.406.863 1.168l10.059 28.854q.152.407.152.864zm3.251-29.16q0-1.066.711-1.777.762-.762 1.83-.762 1.422 0 2.133 1.219l7.975 12.75 7.976-12.75q.711-1.22 2.134-1.22 1.066 0 1.778.763.762.711.762 1.778 0 .711-.407 1.371L177.36 93.63v12.243q0 1.067-.762 1.829-.71.711-1.778.711-1.066 0-1.828-.711-.712-.762-.712-1.829V93.629l-9.702-15.545q-.407-.66-.407-1.371z" aria-label="WAY" transform="translate(-41.312 -38.473)"/><path d="M85.97 103.281q1.066 0 1.777.762.762.711.762 1.778 0 1.016-.762 1.778-.711.711-1.778.711H70.73q-1.067 0-1.829-.71-.71-.763-.71-1.779 0-1.067.71-1.778.762-.762 1.83-.762h5.13V81.945l-1.727 1.321q-.711.559-1.575.559-1.016 0-1.778-.762t-.762-1.778q0-1.27 1.016-2.032l5.791-4.47q.66-.509 1.473-.509h.102q1.016 0 1.727.762.762.712.762 1.778v26.467Z" style="-inkscape-font-specification:'Brass Mono Bold';fill:#ccc;stroke-width:9.525;stroke-linecap:round;stroke-linejoin:round" aria-label="1" transform="translate(-41.312 -38.473)"/><path d="m59.26 54.136.22.22q.153.135.661.339.525.203 1.152.203.982 0 1.49-.491.457-.424.457-1.135 0-.423-.119-.626-.118-.204-.372-.39-.423-.305-1.778-.677-1.355-.356-1.964-.762-.56-.356-.898-.948-.338-.61-.338-1.372 0-1.422 1.066-2.388 1.067-.982 2.523-.982.525 0 1.016.153.508.135.813.321.322.17.61.407.288.22.372.322.085.084.136.152.186.237.186.525 0 .355-.254.61-.254.237-.593.237-.423 0-.677-.34-.05-.067-.186-.185-.136-.136-.542-.322t-.88-.186q-.796 0-1.355.508-.542.49-.542 1.168 0 .373.101.559.102.17.356.355.39.237 1.71.61 1.423.39 2.083.847.542.39.864 1.016.338.61.338 1.388 0 1.423-.982 2.37-.965.932-2.641.932-.593 0-1.169-.152-.559-.136-.914-.305-.356-.186-.677-.423-.322-.237-.424-.322-.084-.102-.135-.17-.203-.236-.203-.541 0-.356.237-.593.254-.254.592-.254.424 0 .66.322zm11.481-9.043q.068-.017.119-.017.068 0 .118.017h2.845q.356 0 .593.254.254.237.254.593 0 .339-.254.593-.237.237-.593.237h-2.116v8.788q0 .356-.254.61-.237.237-.593.237t-.61-.237q-.237-.254-.237-.61V46.77h-2.15q-.356 0-.61-.237-.237-.254-.237-.593 0-.356.237-.593.254-.254.61-.254zm5.91.983q0-.356.237-.593.254-.254.61-.254.338 0 .576.254.254.237.254.593v6.604q0 1.303.474 1.778.423.44 1.507.44 1.083 0 1.507-.424.474-.474.474-1.794v-6.604q0-.356.237-.593.254-.254.593-.254.355 0 .592.254.254.237.254.593v6.604q0 2.015-.948 2.98-.914.914-2.71.914-3.657 0-3.657-3.894zm10.008-.932h2.878q.762 0 1.507.373.746.372 1.355 1.067.627.677 1.016 1.794.39 1.101.39 2.439 0 2.726-1.118 4.2-.559.727-1.389 1.1-.812.373-1.76.373h-2.88q-.355 0-.609-.238-.237-.254-.237-.592v-9.67q0-.355.237-.592.254-.254.61-.254zm.846 9.67h2.032q1.169 0 1.795-.83.78-1.017.78-3.167 0-1.067-.289-1.88-.27-.83-.71-1.253-.424-.44-.83-.643-.407-.22-.746-.22h-2.032zm11.684-9.67q.068-.017.119-.017.05 0 .118.017h2.388q.356 0 .593.254.254.237.254.593 0 .339-.254.593-.237.237-.593.237h-1.66v7.975h1.66q.356 0 .593.254.254.237.254.593 0 .355-.254.61-.237.236-.593.236H96.768q-.356 0-.61-.237-.237-.254-.237-.61 0-.355.237-.592.254-.254.61-.254h1.693v-7.975h-1.693q-.356 0-.61-.237-.237-.254-.237-.593 0-.356.237-.593.254-.254.61-.254zm9.585 1.812q-.644 0-1 .119-.355.118-.61.44-.693.847-.693 3.42 0 2.557.694 3.404.254.322.61.44.355.119.999.119.643 0 .999-.119.355-.118.61-.423.694-.847.694-3.42 0-2.591-.695-3.438-.254-.305-.61-.423-.355-.119-.998-.119zm-3.997 3.962q0-1.05.102-1.862.118-.83.39-1.558.27-.728.71-1.202.44-.474 1.135-.745.711-.271 1.66-.271 1.98 0 2.912 1.151 1.084 1.32 1.084 4.504 0 3.167-1.067 4.488-.948 1.151-2.93 1.151-1.98 0-2.929-1.168-1.067-1.321-1.067-4.488z" style="-inkscape-font-specification:'Brass Mono Bold';fill:#363636;stroke-width:9.525;stroke-linecap:round;stroke-linejoin:round" aria-label="STUDIO" transform="translate(-41.312 -38.473)"/></svg>