<svg width="706.511" height="344.731" viewBox="0 0 186.931 91.21" xmlns="http://www.w3.org/2000/svg"><g transform="translate(-55.035 -58.06)"><rect style="fill:#68cb96;fill-opacity:1;stroke:none;stroke-width:6.35;stroke-linecap:round;stroke-linejoin:round;stroke-dasharray:none;stroke-opacity:1" width="72.151" height="29.379" x="61.933" y="58.061" ry="1.914"/><path style="fill:#1a1a1a;stroke-linecap:round;stroke-linejoin:round" d="M58.21 85.497v47.311H208.56l-5.865 13.287 36.095-36.942-36.095-36.943 5.865 13.287z"/><path style="fill:#1a1a1a;stroke-linecap:round;stroke-linejoin:round" d="M200.918 69.582a3.175 3.175 0 0 0-1.127 3.91l3.898 8.83H58.21a3.175 3.175 0 0 0-3.174 3.174v47.313a3.175 3.175 0 0 0 3.174 3.175h145.478l-3.896 8.829a3.175 3.175 0 0 0 5.176 3.501l36.095-36.943a3.175 3.175 0 0 0 0-4.437L204.968 69.99a3.175 3.175 0 0 0-4.049-.408zm10.69 16.291 22.744 23.28-22.745 23.28a3.175 3.175 0 0 0-3.046-2.8H61.385V88.672H208.56a3.175 3.175 0 0 0 3.046-2.799z"/><path d="m71.999 74.588.22.22q.152.135.66.339.525.203 1.152.203.982 0 1.49-.491.457-.424.457-1.135 0-.423-.118-.626-.119-.204-.373-.39-.423-.305-1.778-.677-1.355-.356-1.964-.762-.559-.356-.898-.948-.338-.61-.338-1.372 0-1.422 1.066-2.388 1.067-.982 2.524-.982.524 0 1.016.153.508.135.812.321.322.17.61.407.288.22.372.322.085.084.136.152.186.237.186.525 0 .355-.254.61-.254.237-.592.237-.424 0-.678-.34-.05-.067-.186-.185-.136-.136-.542-.322t-.88-.186q-.796 0-1.355.508-.542.49-.542 1.168 0 .373.102.559.101.17.355.355.39.237 1.71.61 1.423.39 2.083.847.542.39.864 1.016.339.61.339 1.388 0 1.423-.983 2.37-.965.932-2.641.932-.593 0-1.169-.152-.558-.136-.914-.305-.356-.186-.677-.423-.322-.237-.424-.322-.084-.102-.135-.17-.203-.236-.203-.541 0-.356.237-.593.254-.254.592-.254.424 0 .66.322zm11.48-9.043q.068-.016.12-.016.067 0 .118.016h2.844q.356 0 .593.254.254.237.254.593 0 .339-.254.593-.237.237-.593.237h-2.116v8.788q0 .356-.254.61-.237.237-.593.237-.355 0-.61-.237-.237-.254-.237-.61v-8.788h-2.15q-.356 0-.61-.237-.237-.254-.237-.593 0-.355.237-.593.254-.254.61-.254zm5.91.983q0-.356.237-.593.254-.254.61-.254.339 0 .576.254.254.237.254.593v6.604q0 1.303.474 1.778.423.44 1.507.44 1.084 0 1.507-.424.474-.474.474-1.794v-6.604q0-.356.237-.593.254-.254.593-.254.355 0 .592.254.254.237.254.593v6.604q0 2.015-.948 2.98-.914.914-2.71.914-3.657 0-3.657-3.894zm10.008-.932h2.879q.762 0 1.507.373.745.372 1.354 1.067.627.677 1.016 1.794.39 1.101.39 2.439 0 2.726-1.118 4.2-.559.727-1.388 1.1-.813.373-1.761.373h-2.88q-.355 0-.609-.238-.237-.254-.237-.592v-9.67q0-.355.237-.592.254-.254.61-.254zm.847 9.67h2.032q1.168 0 1.794-.83.78-1.017.78-3.167 0-1.067-.288-1.88-.271-.83-.712-1.253-.423-.44-.83-.643-.406-.22-.744-.22h-2.032zm11.684-9.67q.067-.017.118-.017.05 0 .119.017h2.387q.356 0 .593.254.254.237.254.593 0 .339-.254.593-.237.237-.593.237h-1.66v7.975h1.66q.356 0 .593.254.254.237.254.593 0 .355-.254.61-.237.237-.593.237h-5.046q-.356 0-.61-.238-.237-.254-.237-.61 0-.355.237-.592.254-.254.61-.254h1.693v-7.975h-1.693q-.356 0-.61-.237-.237-.254-.237-.593 0-.356.237-.593.254-.254.61-.254zm9.584 1.812q-.644 0-1 .119-.355.118-.609.44-.694.847-.694 3.42 0 2.557.694 3.404.254.322.61.44.355.119.999.119.643 0 .999-.119.355-.118.61-.423.694-.847.694-3.42 0-2.591-.695-3.438-.254-.305-.61-.423-.355-.119-.998-.119zm-3.997 3.962q0-1.05.102-1.862.119-.83.39-1.558.27-.728.71-1.202.441-.474 1.135-.745.711-.271 1.66-.271 1.98 0 2.912 1.151 1.084 1.321 1.084 4.504 0 3.167-1.067 4.488-.948 1.151-2.93 1.151-1.98 0-2.929-1.168-1.067-1.321-1.067-4.488z" style="-inkscape-font-specification:'Brass Mono Bold';fill:#1a1a1a;fill-opacity:1;stroke-width:9.525;stroke-linecap:round;stroke-linejoin:round" aria-label="STUDIO"/><path d="M116.9 118.76Q114.9 99.285 114.9 99.217q0-.711.474-1.185.508-.508 1.22-.508.643 0 1.117.44.508.44.576 1.084l1.22 11.853 2.2-6.3q.17-.473.61-.778.44-.339.982-.339t.982.339q.44.305.61.779l2.201 6.3 1.22-11.854q.067-.644.541-1.084.508-.44 1.152-.44.711 0 1.185.508.508.474.508 1.185 0 .068-1.998 19.541-.068.644-.576 1.084-.474.44-1.117.44-.542 0-.982-.305-.44-.338-.61-.812l-3.116-8.907-3.115 8.907q-.17.474-.61.812-.44.305-.982.305-.644 0-1.152-.44-.474-.44-.542-1.084zm28.041-6.503-2.71-7.756-2.675 7.756zm5.69 6.333q0 .711-.508 1.22-.508.473-1.186.473-.575 0-1.016-.305-.44-.338-.61-.846l-1.218-3.489h-7.688l-1.186 3.455q-.169.508-.61.847-.44.304-1.015.304-.677 0-1.185-.508t-.508-1.185q0-.305.101-.576l6.638-19.202q.17-.508.61-.813.44-.339.982-.339.17 0 .372.034.237.034.644.339.406.27.575.779l6.706 19.236q.102.271.102.576zm2.167-19.44q0-.71.474-1.185.508-.508 1.22-.508.948 0 1.422.813l5.317 8.5 5.317-8.5q.474-.813 1.422-.813.712 0 1.186.508.508.474.508 1.185 0 .475-.271.915l-6.469 10.363v8.162q0 .711-.508 1.22-.474.473-1.185.473-.711 0-1.22-.474-.473-.508-.473-1.22v-8.161l-6.469-10.363q-.27-.44-.27-.915z" style="-inkscape-font-specification:'Brass Mono Bold';fill:#f6f6f6;stroke-width:6.35;stroke-linecap:round;stroke-linejoin:round" aria-label="WAY" transform="translate(7.626 .283)"/><path d="M104.063 116.93q.711 0 1.186.508.508.475.508 1.186 0 .677-.508 1.185-.475.474-1.186.474h-10.16q-.711 0-1.219-.474-.474-.508-.474-1.185 0-.711.474-1.186.508-.508 1.22-.508h3.42v-14.224l-1.152.88q-.474.373-1.05.373-.677 0-1.185-.508t-.508-1.185q0-.847.677-1.355l3.861-2.98q.44-.339.982-.339h.068q.677 0 1.152.508.508.475.508 1.186v17.644z" style="-inkscape-font-specification:'Brass Mono Bold';fill:#f6f6f6;stroke-width:6.35;stroke-linecap:round;stroke-linejoin:round" aria-label="1" transform="translate(7.626 .283)"/></g></svg>